<svg id="Capa_1" enable-background="new 0 0 511.992 511.992" height="512" viewBox="0 0 511.992 511.992" width="512" xmlns="http://www.w3.org/2000/svg"><g><path d="m458.654 317.669v-123.344c15.139-8.074 25.47-24.021 25.47-42.341 0-4.149-.534-8.283-1.586-12.287-1.052-4.006-5.154-6.4-9.16-5.347s-6.4 5.154-5.347 9.16c.726 2.76 1.093 5.611 1.093 8.474 0 18.174-14.79 32.96-32.97 32.96-18.174 0-32.96-14.786-32.96-32.96 0-18.18 14.786-32.97 32.96-32.97 6.142 0 12.143 1.704 17.354 4.928 3.522 2.18 8.145 1.09 10.324-2.432s1.09-8.145-2.432-10.324c-7.583-4.692-16.313-7.172-25.246-7.172-9.326 0-18.033 2.686-25.405 7.311l-106.835-61.67c.02-.562.043-1.124.043-1.692 0-26.447-21.516-47.963-47.963-47.963s-47.963 21.516-47.963 47.963c0 .567.023 1.129.043 1.692l-106.835 61.67c-7.373-4.624-16.08-7.309-25.406-7.309-26.447 0-47.963 21.516-47.963 47.963 0 18.321 10.329 34.268 25.465 42.343v73.651c0 4.142 3.358 7.5 7.5 7.5s7.5-3.358 7.5-7.5v-68.621c2.444.385 4.947.59 7.498.59 2.552 0 5.057-.205 7.502-.591v113.289c-2.445-.386-4.95-.591-7.502-.591-2.551 0-5.054.205-7.498.59v-14.665c0-4.142-3.358-7.5-7.5-7.5s-7.5 3.358-7.5 7.5v19.695c-15.137 8.075-25.465 24.023-25.465 42.343 0 26.447 21.516 47.964 47.963 47.964 9.327 0 18.034-2.685 25.407-7.31l106.835 61.671c-.02.562-.043 1.124-.043 1.692 0 26.447 21.516 47.963 47.963 47.963s47.963-21.516 47.963-47.963c0-.567-.023-1.129-.043-1.692l106.835-61.671c7.373 4.625 16.08 7.31 25.407 7.31 26.447 0 47.963-21.517 47.963-47.964-.001-18.32-10.329-34.268-25.466-42.343zm-15-118.315v113.285c-2.444-.385-4.947-.59-7.498-.59-2.552 0-5.057.205-7.502.591v-113.286c2.445.385 4.949.59 7.5.59s5.055-.204 7.5-.59zm-30-5.031v123.348c-.994.53-1.964 1.097-2.914 1.694l-48.896-28.239c3.677-11.05 5.674-22.861 5.674-35.13s-1.997-24.08-5.674-35.131l48.895-28.238c.95.598 1.921 1.165 2.915 1.696zm-157.66 158.196c-53.223 0-96.523-43.3-96.523-96.523s43.3-96.523 96.523-96.523 96.523 43.3 96.523 96.523-43.3 96.523-96.523 96.523zm100.099-145.654c-2.221-4.507-4.733-8.844-7.519-12.984l42.815-24.717c1.822 4.732 4.369 9.105 7.511 12.979zm32.144-53.201-48.951 28.259c-15.681-17.614-36.846-30.244-60.792-35.169v-56.448c.991-.529 1.958-1.094 2.906-1.688l106.837 61.671c-.02.564-.043 1.127-.043 1.696 0 .563.023 1.12.043 1.679zm-124.743-8.934c-2.48-.166-4.979-.258-7.5-.258s-5.02.092-7.5.258v-49.394c2.445.385 4.949.59 7.5.59s5.055-.205 7.5-.59zm-32.906-56.113c.948.594 1.916 1.159 2.906 1.688v56.448c-23.946 4.925-45.111 17.555-60.792 35.169l-48.949-28.258c.019-.561.043-1.12.043-1.685 0-.567-.023-1.129-.043-1.691zm-109.988 80.547 42.815 24.717c-2.786 4.14-5.299 8.478-7.519 12.984l-42.808-24.722c3.142-3.875 5.689-8.247 7.512-12.979zm42.814 148.948-42.814 24.716c-1.823-4.732-4.369-9.104-7.512-12.979l42.807-24.722c2.221 4.507 4.733 8.845 7.519 12.985zm-39.662 40.215 48.949-28.258c15.681 17.614 36.846 30.243 60.792 35.168v56.449c-.991.529-1.958 1.094-2.906 1.688l-106.835-61.671c.02-.563.043-1.124.043-1.692 0-.564-.023-1.123-.043-1.684zm124.742 8.934c2.48.166 4.979.258 7.5.258s5.02-.092 7.5-.258v49.395c-2.445-.385-4.949-.59-7.5-.59s-5.055.205-7.5.59zm32.906 56.114c-.948-.594-1.916-1.159-2.906-1.688v-56.449c23.946-4.925 45.111-17.555 60.792-35.168l48.949 28.258c-.019.561-.043 1.12-.043 1.685 0 .567.023 1.129.043 1.692zm109.988-80.547-42.815-24.716c2.787-4.14 5.299-8.478 7.52-12.984l42.807 24.722c-3.142 3.874-5.689 8.246-7.512 12.978zm7.519-221.018c-3.144 3.875-5.691 8.248-7.515 12.981l-98.149-56.656c3.144-3.875 5.692-8.248 7.516-12.98zm-142.913-106.81c18.176 0 32.963 14.787 32.963 32.963s-14.787 32.963-32.963 32.963-32.963-14.787-32.963-32.963 14.787-32.963 32.963-32.963zm-37.25 63.134-98.147 56.655c-1.823-4.732-4.372-9.105-7.516-12.98l98.147-56.655c1.824 4.732 4.372 9.106 7.516 12.98zm-175.876 73.845c0-18.176 14.787-32.963 32.963-32.963s32.963 14.787 32.963 32.963-14.787 32.963-32.963 32.963-32.963-14.786-32.963-32.963zm55.466 42.342c.994-.53 1.964-1.097 2.914-1.694l48.896 28.239c-3.677 11.051-5.674 22.861-5.674 35.131s1.997 24.08 5.674 35.13l-48.896 28.239c-.951-.597-1.921-1.164-2.914-1.694zm-55.466 165.691c0-18.176 14.787-32.963 32.963-32.963s32.963 14.787 32.963 32.963-14.787 32.964-32.963 32.964-32.963-14.788-32.963-32.964zm70.214 30.171c3.144-3.875 5.692-8.248 7.516-12.98l98.147 56.656c-3.144 3.875-5.692 8.248-7.516 12.98zm142.912 106.809c-18.176 0-32.963-14.787-32.963-32.963s14.787-32.963 32.963-32.963 32.963 14.787 32.963 32.963-14.787 32.963-32.963 32.963zm37.25-63.134 98.147-56.656c1.824 4.732 4.371 9.105 7.516 12.98l-98.147 56.656c-1.824-4.732-4.372-9.105-7.516-12.98zm142.912-40.882c-18.176 0-32.963-14.788-32.963-32.964s14.787-32.963 32.963-32.963 32.963 14.787 32.963 32.963-14.787 32.964-32.963 32.964z"/><path d="m269.449 248.315c-2.177-.77-4.405-1.577-6.627-2.418v-35.485c5.013 1.198 8.221 3.616 9.131 4.374 3.183 2.649 7.912 2.215 10.562-.969 2.649-3.184 2.215-7.913-.969-10.562-1.734-1.442-8.483-6.543-18.725-8.082v-7.25c0-4.142-3.358-7.5-7.5-7.5s-7.5 3.358-7.5 7.5v7.814c-1.113.245-2.243.532-3.397.879-10.729 3.232-18.746 12.414-20.922 23.962-1.984 10.53 1.389 20.683 8.804 26.499 3.929 3.081 8.818 5.904 15.515 8.885v44.971c-5.791-.427-9.807-1.843-16.383-6.145-3.467-2.268-8.115-1.296-10.382 2.17-2.268 3.466-1.296 8.115 2.17 10.382 9.588 6.272 16.138 8.143 24.595 8.618v8.111c0 4.142 3.358 7.5 7.5 7.5s7.5-3.358 7.5-7.5v-8.707c16.827-3.301 26.656-17.176 28.834-30.137 2.803-16.663-5.914-31.151-22.206-36.91zm-27.885-13.041c-2.991-2.346-4.263-6.913-3.32-11.918.845-4.485 3.806-9.875 9.578-12.054v27.972c-2.355-1.278-4.486-2.61-6.258-4zm35.301 47.465c-1.154 6.866-5.936 14.144-14.042 17.044v-37.908c.541.194 1.071.386 1.628.583 13.858 4.898 13.005 16.761 12.414 20.281z"/></g></svg>