<svg width="93" height="15" viewBox="0 0 93 15" fill="none" xmlns="http://www.w3.org/2000/svg">
<g clip-path="url(#clip0)">
<path d="M9.09847 0.777965L10.7857 4.206C10.903 4.44442 11.1298 4.60963 11.3923 4.6478L15.1651 5.19755C15.826 5.29392 16.0897 6.10807 15.6117 6.57521L12.8816 9.24355C12.6919 9.42909 12.6052 9.69661 12.6501 9.9585L13.2945 13.7263C13.4074 14.3862 12.7166 14.8894 12.1256 14.578L8.75117 12.7992C8.51652 12.6756 8.236 12.6756 8.00134 12.7992L4.62696 14.578C4.03596 14.8897 3.3451 14.3862 3.45806 13.7263L4.10242 9.9585C4.14736 9.69661 4.06061 9.42909 3.87089 9.24355L1.14086 6.57521C0.662822 6.10775 0.926494 5.29361 1.58739 5.19755L5.36025 4.6478C5.62267 4.60963 5.84953 4.44442 5.96685 4.206L7.65405 0.777965C7.94923 0.177527 8.80297 0.177527 9.09847 0.777965Z" fill="#0BBEF2"/>
</g>
<g clip-path="url(#clip1)">
<path d="M28.2129 0.777965L29.9 4.206C30.0174 4.44442 30.2442 4.60963 30.5066 4.6478L34.2795 5.19755C34.9404 5.29392 35.2041 6.10807 34.726 6.57521L31.996 9.24355C31.8063 9.42909 31.7195 9.69661 31.7645 9.9585L32.4088 13.7263C32.5218 14.3862 31.8309 14.8894 31.2399 14.578L27.8656 12.7992C27.6309 12.6756 27.3504 12.6756 27.1157 12.7992L23.7413 14.578C23.1503 14.8897 22.4595 14.3862 22.5724 13.7263L23.2168 9.9585C23.2617 9.69661 23.175 9.42909 22.9853 9.24355L20.2552 6.57521C19.7772 6.10775 20.0409 5.29361 20.7018 5.19755L24.4746 4.6478C24.7371 4.60963 24.9639 4.44442 25.0812 4.206L26.7684 0.777965C27.0636 0.177527 27.9174 0.177527 28.2129 0.777965Z" fill="#0BBEF2"/>
</g>
<g clip-path="url(#clip2)">
<path d="M47.3274 0.777965L49.0146 4.206C49.1319 4.44442 49.3588 4.60963 49.6212 4.6478L53.394 5.19755C54.0549 5.29392 54.3186 6.10807 53.8406 6.57521L51.1105 9.24355C50.9208 9.42909 50.8341 9.69661 50.879 9.9585L51.5234 13.7263C51.6363 14.3862 50.9455 14.8894 50.3545 14.578L46.9801 12.7992C46.7454 12.6756 46.4649 12.6756 46.2303 12.7992L42.8559 14.578C42.2649 14.8897 41.574 14.3862 41.687 13.7263L42.3313 9.9585C42.3763 9.69661 42.2895 9.42909 42.0998 9.24355L39.3698 6.57521C38.8917 6.10775 39.1554 5.29361 39.8163 5.19755L43.5892 4.6478C43.8516 4.60963 44.0784 4.44442 44.1958 4.206L45.883 0.777965C46.1781 0.177527 47.0319 0.177527 47.3274 0.777965Z" fill="#0BBEF2"/>
</g>
<g clip-path="url(#clip3)">
<path d="M66.4418 0.777965L68.129 4.206C68.2463 4.44442 68.4732 4.60963 68.7356 4.6478L72.5084 5.19755C73.1693 5.29392 73.433 6.10807 72.955 6.57521L70.2249 9.24355C70.0352 9.42909 69.9485 9.69661 69.9934 9.9585L70.6378 13.7263C70.7507 14.3862 70.0599 14.8894 69.4689 14.578L66.0945 12.7992C65.8598 12.6756 65.5793 12.6756 65.3447 12.7992L61.9703 14.578C61.3793 14.8897 60.6884 14.3862 60.8014 13.7263L61.4457 9.9585C61.4907 9.69661 61.4039 9.42909 61.2142 9.24355L58.4842 6.57521C58.0061 6.10775 58.2698 5.29361 58.9307 5.19755L62.7036 4.6478C62.966 4.60963 63.1928 4.44442 63.3102 4.206L64.9974 0.777965C65.2926 0.177527 66.1463 0.177527 66.4418 0.777965Z" fill="#0BBEF2"/>
</g>
<g clip-path="url(#clip4)">
<path d="M85.5562 0.777965L87.2434 4.206C87.3607 4.44442 87.5875 4.60963 87.85 4.6478L91.6228 5.19755C92.2837 5.29392 92.5474 6.10807 92.0694 6.57521L89.3393 9.24355C89.1496 9.42909 89.0629 9.69661 89.1078 9.9585L89.7522 13.7263C89.8651 14.3862 89.1743 14.8894 88.5833 14.578L85.2089 12.7992C84.9742 12.6756 84.6937 12.6756 84.459 12.7992L81.0847 14.578C80.4937 14.8897 79.8028 14.3862 79.9158 13.7263L80.5601 9.9585C80.6051 9.69661 80.5183 9.42909 80.3286 9.24355L77.5986 6.57521C77.1205 6.10775 77.3842 5.29361 78.0451 5.19755L81.818 4.6478C82.0804 4.60963 82.3072 4.44442 82.4246 4.206L84.1117 0.777965C84.4069 0.177527 85.2607 0.177527 85.5562 0.777965Z" fill="#0BBEF2"/>
</g>
<defs>
<clipPath id="clip0">
<rect width="14.9591" height="15" fill="white" transform="translate(0.896484)"/>
</clipPath>
<clipPath id="clip1">
<rect width="14.9591" height="15" fill="white" transform="translate(20.0109)"/>
</clipPath>
<clipPath id="clip2">
<rect width="14.9591" height="15" fill="white" transform="translate(39.1254)"/>
</clipPath>
<clipPath id="clip3">
<rect width="14.9591" height="15" fill="white" transform="translate(58.2398)"/>
</clipPath>
<clipPath id="clip4">
<rect width="14.9591" height="15" fill="white" transform="translate(77.3542)"/>
</clipPath>
</defs>
</svg>
