<svg width="159" height="159" viewBox="0 0 159 159" fill="none" xmlns="http://www.w3.org/2000/svg">
<g clip-path="url(#clip0)">
<path d="M142.436 98.6527V60.348C147.137 57.8406 150.345 52.8882 150.345 47.1989C150.345 45.9104 150.18 44.6266 149.853 43.3831C149.526 42.1391 148.252 41.3956 147.008 41.7226C145.764 42.0496 145.021 43.3232 145.348 44.5673C145.573 45.4244 145.687 46.3098 145.687 47.1989C145.687 52.8429 141.094 57.4347 135.448 57.4347C129.804 57.4347 125.212 52.8429 125.212 47.1989C125.212 41.5531 129.804 36.96 135.448 36.96C137.356 36.96 139.219 37.4892 140.838 38.4904C141.931 39.1674 143.367 38.8289 144.044 37.7351C144.72 36.6414 144.382 35.2057 143.288 34.529C140.934 33.0719 138.222 32.3017 135.448 32.3017C132.552 32.3017 129.848 33.1359 127.559 34.5722L94.3809 15.4204C94.3871 15.2459 94.3942 15.0714 94.3942 14.895C94.3942 6.68183 87.7124 0 79.4992 0C71.2861 0 64.6042 6.68183 64.6042 14.895C64.6042 15.0711 64.6114 15.2456 64.6176 15.4204L31.4398 34.5722C29.1501 33.1362 26.4461 32.3023 23.5499 32.3023C15.3368 32.3023 8.65494 38.9842 8.65494 47.1973C8.65494 52.887 11.8626 57.8393 16.5631 60.347V83.2195C16.5631 84.5058 17.606 85.5486 18.8923 85.5486C20.1786 85.5486 21.2214 84.5058 21.2214 83.2195V61.9091C21.9804 62.0287 22.7577 62.0923 23.5499 62.0923C24.3425 62.0923 25.1204 62.0287 25.8797 61.9088V97.0909C25.1204 96.971 24.3425 96.9074 23.5499 96.9074C22.7577 96.9074 21.9804 96.971 21.2214 97.0906V92.5363C21.2214 91.25 20.1786 90.2072 18.8923 90.2072C17.606 90.2072 16.5631 91.25 16.5631 92.5363V98.6527C11.8623 101.16 8.65494 106.113 8.65494 111.802C8.65494 120.016 15.3368 126.698 23.5499 126.698C26.4464 126.698 29.1504 125.864 31.4401 124.428L64.6179 143.58C64.6117 143.754 64.6046 143.929 64.6046 144.105C64.6046 152.318 71.2864 159 79.4995 159C87.7127 159 94.3945 152.318 94.3945 144.105C94.3945 143.929 94.3874 143.754 94.3812 143.58L127.559 124.428C129.849 125.864 132.553 126.698 135.449 126.698C143.662 126.698 150.344 120.016 150.344 111.802C150.344 106.113 147.136 101.16 142.436 98.6527ZM137.777 61.9097V97.0906C137.018 96.971 136.241 96.9074 135.449 96.9074C134.656 96.9074 133.878 96.971 133.119 97.0909V61.9097C133.878 62.0293 134.656 62.093 135.448 62.093C136.24 62.093 137.018 62.0296 137.777 61.9097ZM128.461 60.3473V98.6533C128.152 98.8179 127.851 98.9939 127.556 99.1794L112.371 90.4097C113.513 86.9781 114.133 83.3102 114.133 79.5C114.133 75.6898 113.513 72.0219 112.371 68.59L127.556 59.8206C127.851 60.0064 128.152 60.1824 128.461 60.3473ZM79.4992 109.475C62.9707 109.475 49.5239 96.0285 49.5239 79.5C49.5239 62.9715 62.9707 49.5246 79.4992 49.5246C96.0277 49.5246 109.475 62.9715 109.475 79.5C109.475 96.0285 96.0277 109.475 79.4992 109.475ZM110.585 64.2423C109.895 62.8426 109.115 61.4958 108.25 60.2101L121.546 52.5342C122.112 54.0037 122.903 55.3617 123.879 56.5648L110.585 64.2423ZM120.568 47.7206L105.366 56.4965C100.496 51.0264 93.9231 47.1042 86.4866 45.5747V28.0447C86.7944 27.8804 87.0947 27.7049 87.3891 27.5205L120.568 46.6725C120.561 46.8477 120.554 47.0225 120.554 47.1992C120.554 47.374 120.561 47.547 120.568 47.7206ZM81.8284 44.9462C81.0582 44.8946 80.2821 44.866 79.4992 44.866C78.7163 44.866 77.9403 44.8946 77.1701 44.9462V29.6068C77.9294 29.7263 78.707 29.79 79.4992 29.79C80.2915 29.79 81.0691 29.7263 81.8284 29.6068V44.9462ZM71.6094 27.5202C71.9038 27.7046 72.2044 27.8801 72.5118 28.0444V45.5744C65.0754 47.1039 58.5025 51.0261 53.6328 56.4962L38.4316 47.7206C38.4375 47.5464 38.4449 47.3728 38.4449 47.1973C38.4449 47.0213 38.4378 46.8467 38.4316 46.6722L71.6094 27.5202ZM37.4524 52.5342L50.7487 60.2101C49.8835 61.4958 49.1031 62.8429 48.4136 64.2423L35.1195 56.5648C36.0953 55.3614 36.8863 54.0037 37.4524 52.5342ZM50.7484 98.7902L37.4524 106.466C36.8863 104.996 36.0956 103.639 35.1195 102.435L48.4133 94.7577C49.1031 96.1574 49.8832 97.5045 50.7484 98.7902ZM38.4313 111.279L53.6325 102.504C58.5022 107.974 65.075 111.896 72.5115 113.425V130.955C72.2038 131.12 71.9035 131.295 71.6091 131.48L38.4313 112.327C38.4375 112.153 38.4446 111.978 38.4446 111.802C38.4446 111.627 38.4375 111.453 38.4313 111.279ZM77.1701 114.054C77.9403 114.105 78.7163 114.134 79.4992 114.134C80.2821 114.134 81.0582 114.105 81.8284 114.054V129.393C81.0691 129.274 80.2915 129.21 79.4992 129.21C78.707 129.21 77.9294 129.274 77.1701 129.393V114.054ZM87.3891 131.48C87.0947 131.295 86.7941 131.12 86.4866 130.956V113.425C93.9231 111.896 100.496 107.974 105.366 102.504L120.567 111.279C120.561 111.454 120.554 111.627 120.554 111.803C120.554 111.979 120.561 112.153 120.567 112.328L87.3891 131.48ZM121.546 106.466L108.25 98.7902C109.115 97.5045 109.895 96.1574 110.585 94.758L123.879 102.435C122.903 103.639 122.112 104.996 121.546 106.466ZM123.881 37.8283C122.905 39.0317 122.114 40.3897 121.547 41.8596L91.067 24.265C92.0434 23.0616 92.8346 21.7035 93.4011 20.234L123.881 37.8283ZM79.4992 4.65828C85.1438 4.65828 89.736 9.2504 89.736 14.895C89.736 20.5396 85.1438 25.1317 79.4992 25.1317C73.8547 25.1317 69.2625 20.5396 69.2625 14.895C69.2625 9.2504 73.8547 4.65828 79.4992 4.65828ZM67.9312 24.2647L37.4515 41.859C36.8853 40.3894 36.0937 39.0314 35.1174 37.828L65.5971 20.2337C66.1635 21.7032 66.9548 23.0616 67.9312 24.2647ZM13.3126 47.1973C13.3126 41.5528 17.9047 36.9606 23.5493 36.9606C29.1939 36.9606 33.786 41.5528 33.786 47.1973C33.786 52.8419 29.1939 57.4341 23.5493 57.4341C17.9047 57.4341 13.3126 52.8422 13.3126 47.1973ZM30.5377 60.3467C30.8463 60.1821 31.1476 60.006 31.4426 59.8206L46.6273 68.5903C45.4854 72.0222 44.8653 75.6898 44.8653 79.5003C44.8653 83.3108 45.4854 86.9784 46.6273 90.41L31.4426 99.1797C31.1473 98.9943 30.846 98.8182 30.5377 98.6536V60.3467ZM13.3126 111.802C13.3126 106.158 17.9047 101.566 23.5493 101.566C29.1939 101.566 33.786 106.158 33.786 111.802C33.786 117.447 29.1939 122.039 23.5493 122.039C17.9047 122.039 13.3126 117.447 13.3126 111.802ZM35.1177 121.172C36.094 119.969 36.8853 118.611 37.4518 117.141L67.9315 134.736C66.9551 135.939 66.1638 137.297 65.5974 138.767L35.1177 121.172ZM79.4992 154.342C73.8547 154.342 69.2625 149.75 69.2625 144.105C69.2625 138.46 73.8547 133.868 79.4992 133.868C85.1438 133.868 89.736 138.46 89.736 144.105C89.736 149.75 85.1438 154.342 79.4992 154.342ZM91.0673 134.735L121.547 117.141C122.113 118.61 122.904 119.968 123.881 121.172L93.4014 138.766C92.835 137.297 92.0437 135.939 91.0673 134.735ZM135.449 122.039C129.804 122.039 125.212 117.447 125.212 111.802C125.212 106.158 129.804 101.566 135.449 101.566C141.093 101.566 145.686 106.158 145.686 111.802C145.686 117.447 141.093 122.039 135.449 122.039Z" fill="#0BBEF2" fill-opacity="0.7"/>
<path d="M83.6779 77.1147C83.0018 76.8756 82.3099 76.625 81.6198 76.3638V65.3439C83.1766 65.7159 84.1729 66.4668 84.4555 66.7022C85.444 67.5249 86.9126 67.3901 87.7355 66.4013C88.5582 65.4125 88.4234 63.9439 87.4346 63.1213C86.8961 62.6735 84.8002 61.0893 81.6195 60.6114V58.3599C81.6195 57.0736 80.5767 56.0308 79.2904 56.0308C78.0041 56.0308 76.9612 57.0736 76.9612 58.3599V60.7865C76.6156 60.8626 76.2647 60.9518 75.9063 61.0595C72.5744 62.0632 70.0847 64.9147 69.4089 68.501C68.7928 71.7711 69.8403 74.9241 72.143 76.7303C73.3632 77.6871 74.8815 78.5638 76.9612 79.4895V93.4553C75.1628 93.3227 73.9157 92.883 71.8735 91.547C70.7968 90.8427 69.3533 91.1445 68.6493 92.2209C67.945 93.2973 68.2468 94.741 69.3232 95.445C72.3008 97.3928 74.3349 97.9739 76.9612 98.1214V100.64C76.9612 101.927 78.0041 102.969 79.2904 102.969C80.5767 102.969 81.6195 101.927 81.6195 100.64V97.9363C86.8452 96.9112 89.8976 92.6023 90.574 88.5772C91.4444 83.4025 88.7374 78.9032 83.6779 77.1147ZM75.0181 73.0648C74.0893 72.3363 73.6942 70.918 73.9871 69.3637C74.2495 67.9709 75.169 66.297 76.9615 65.6203V74.307C76.2302 73.9102 75.5684 73.4965 75.0181 73.0648ZM85.9809 87.8052C85.6225 89.9374 84.1375 92.1976 81.6201 93.0982V81.3258C81.7881 81.3861 81.9527 81.4457 82.1257 81.5069C86.4293 83.028 86.1644 86.712 85.9809 87.8052Z" fill="#0BBEF2" fill-opacity="0.7"/>
</g>
<defs>
<clipPath id="clip0">
<rect width="159" height="159" fill="white"/>
</clipPath>
</defs>
</svg>
