<svg width="44" height="17" viewBox="0 0 44 17" fill="none" xmlns="http://www.w3.org/2000/svg">
<path d="M8.7 16.3C7.04 16.3 5.61 15.96 4.41 15.28C3.23 14.58 2.34 13.64 1.74 12.46C1.14 11.28 0.84 9.97 0.84 8.53C0.84 7.07 1.14 5.75 1.74 4.57C2.34 3.37 3.24 2.43 4.44 1.75C5.64 1.05 7.1 0.699998 8.82 0.699998C10.36 0.699998 11.7 1.02 12.84 1.66L12.54 4.66C11.46 4.1 10.34 3.82 9.18 3.82C7.76 3.82 6.65 4.25 5.85 5.11C5.05 5.97 4.65 7.11 4.65 8.53C4.65 9.89 5.06 11.02 5.88 11.92C6.7 12.8 7.79 13.24 9.15 13.24C10.29 13.24 11.43 12.91 12.57 12.25L12.9 15.4C12.36 15.68 11.72 15.9 10.98 16.06C10.26 16.22 9.5 16.3 8.7 16.3ZM31.3223 0.76C33.3223 0.76 34.8023 1.37 35.7623 2.59C36.7423 3.79 37.2323 5.48 37.2323 7.66V16H33.5123V7.93C33.5123 6.51 33.2923 5.47 32.8523 4.81C32.4123 4.15 31.6923 3.82 30.6923 3.82C29.7123 3.82 28.9723 4.16 28.4723 4.84C27.9723 5.5 27.7223 6.44 27.7223 7.66V16H24.0023V7.93C24.0023 6.51 23.7723 5.47 23.3123 4.81C22.8523 4.15 22.1223 3.82 21.1223 3.82C19.9423 3.82 18.9723 4.25 18.2123 5.11V16H14.4923V1H17.6723L17.7923 2.2C19.1523 1.24 20.6223 0.76 22.2023 0.76C24.1223 0.76 25.5523 1.45 26.4923 2.83C27.0123 2.17 27.6923 1.66 28.5323 1.3C29.3723 0.94 30.3023 0.76 31.3223 0.76Z" fill="#0BBEF2"/>
<path d="M39.3066 11.92H43.2066V16H39.3066V11.92Z" fill="#0BBEF2"/>
</svg>
