<svg width="150" height="149" viewBox="0 0 150 149" fill="none" xmlns="http://www.w3.org/2000/svg">
<path d="M107.5 74.5C89.5506 74.5 75 88.9536 75 106.783C75 124.613 89.5506 139.067 107.5 139.067C125.449 139.067 140 124.613 140 106.783C139.979 88.9623 125.441 74.5205 107.5 74.5ZM107.5 134.1C92.3122 134.1 80 121.87 80 106.783C80 91.6968 92.3122 79.4667 107.5 79.4667C122.688 79.4667 135 91.6968 135 106.783C134.982 121.862 122.68 134.082 107.5 134.1Z" fill="#0BBEF2" fill-opacity="0.7"/>
<path d="M122.5 96.85C122.5 92.7354 119.142 89.4 115 89.4H112.5V84.4333H107.5V89.4H105.02L105.06 84.4532L100.06 84.4135L100.02 89.4H92.5V94.3667H97.5V119.2H92.5V124.167H100.02L100.06 129.153L105.06 129.113L105.02 124.167H107.5V129.133H112.5V124.167H115C119.142 124.167 122.5 120.831 122.5 116.717V111.75C122.493 109.911 121.798 108.141 120.55 106.783C121.798 105.426 122.493 103.655 122.5 101.817V96.85ZM117.5 116.717C117.5 118.088 116.381 119.2 115 119.2H102.5V109.267H115C116.381 109.267 117.5 110.379 117.5 111.75V116.717ZM117.5 101.817C117.5 103.188 116.381 104.3 115 104.3H102.5V94.3667H115C116.381 94.3667 117.5 95.4786 117.5 96.85V101.817Z" fill="#0BBEF2" fill-opacity="0.7"/>
<path d="M107.5 64.5667C84.0278 64.5667 65 83.4676 65 106.783C65 130.099 84.0278 149 107.5 149C130.972 149 150 130.099 150 106.783C149.974 83.4785 130.961 64.5927 107.5 64.5667ZM107.5 144.033C86.7894 144.033 70 127.356 70 106.783C70 86.2108 86.7894 69.5333 107.5 69.5333C128.211 69.5333 145 86.2108 145 106.783C144.977 127.346 128.201 144.01 107.5 144.033Z" fill="#0BBEF2" fill-opacity="0.7"/>
<path d="M42.5 9.93335C24.5506 9.93335 10 24.387 10 42.2167C10 60.0464 24.5506 74.5 42.5 74.5C60.4406 74.4795 74.9794 60.0377 75 42.2167C75 24.387 60.4494 9.93335 42.5 9.93335ZM42.5 69.5333C27.3197 69.5157 15.0178 57.2958 15 42.2167C15 27.1301 27.3122 14.9 42.5 14.9C57.6878 14.9 70 27.1301 70 42.2167C70 57.3032 57.6878 69.5333 42.5 69.5333Z" fill="#0BBEF2" fill-opacity="0.7"/>
<path d="M42.5 0C19.0278 0 0 18.901 0 42.2167C0 65.5324 19.0278 84.4333 42.5 84.4333C65.9613 84.4073 84.9737 65.5215 85 42.2167C85 18.901 65.9722 0 42.5 0ZM42.5 79.4667C21.7991 79.4434 5.02344 62.7796 5 42.2167C5 21.6441 21.7894 4.96667 42.5 4.96667C63.2106 4.96667 80 21.6441 80 42.2167C80 62.7892 63.2106 79.4667 42.5 79.4667Z" fill="#0BBEF2" fill-opacity="0.7"/>
<path d="M42.5 39.7334C38.435 39.7334 35 37.4586 35 34.7667C35 32.0748 38.435 29.8 42.5 29.8C46.565 29.8 50 32.0748 50 34.7667C50 36.1381 51.1194 37.25 52.5 37.25C53.8806 37.25 55 36.1381 55 34.7667C55 29.9689 50.6975 25.9583 45 25.0345V19.8667H40V25.0345C34.3025 25.9583 30 29.9689 30 34.7667C30 40.2449 35.6075 44.7 42.5 44.7C46.565 44.7 50 46.9748 50 49.6667C50 52.3586 46.565 54.6334 42.5 54.6334C38.435 54.6334 35 52.3586 35 49.6667C35 48.2953 33.8806 47.1834 32.5 47.1834C31.1194 47.1834 30 48.2953 30 49.6667C30 54.4645 34.3025 58.4751 40 59.3989V64.5667H45V59.3989C50.6975 58.4751 55 54.4645 55 49.6667C55 44.1885 49.3925 39.7334 42.5 39.7334Z" fill="#0BBEF2" fill-opacity="0.7"/>
<path d="M107.5 24.8333H96.035L102.373 18.5356L98.8375 15.0242L86.465 27.3167L98.8375 39.6092L102.373 36.0977L96.035 29.8H107.5C119.921 29.8137 129.986 39.8122 130 52.15V64.5667H135V52.15C134.982 37.0709 122.68 24.851 107.5 24.8333Z" fill="#0BBEF2" fill-opacity="0.7"/>
<path d="M48.6625 109.391L45.1275 112.902L51.465 119.2H42.5C30.0794 119.186 20.0137 109.188 20 96.85V84.4333H15V96.85C15.0178 111.929 27.3197 124.149 42.5 124.167H51.465L45.1275 130.464L48.6625 133.976L61.035 121.683L48.6625 109.391Z" fill="#0BBEF2" fill-opacity="0.7"/>
</svg>
