<svg width="185" height="138" viewBox="0 0 185 138" fill="none" xmlns="http://www.w3.org/2000/svg">
<path d="M114.299 47.2943C112.796 45.7999 110.353 45.7999 108.85 47.2943C107.346 48.7887 107.346 51.2257 108.85 52.7125C113.213 57.0502 115.625 62.8209 115.625 68.967C115.625 81.6425 105.25 91.9578 92.5003 91.9578C86.3183 91.9578 80.514 89.5667 76.151 85.2215C74.6478 83.7271 72.2042 83.7271 70.7011 85.2215C69.198 86.7083 69.198 89.1453 70.7011 90.6397C76.513 96.4334 84.2599 99.6216 92.5003 99.6216C109.505 99.6216 123.333 85.8731 123.333 68.9674C123.333 60.7744 120.127 53.0725 114.299 47.2943Z" fill="#0BBEF2" fill-opacity="0.7"/>
<path d="M97.8729 38.8412C96.123 38.5347 94.3347 38.3124 92.5003 38.3124C75.4958 38.3124 61.6671 52.0609 61.6671 68.9668C61.6671 70.7906 61.8908 72.5688 62.2066 74.3082C62.5379 76.1629 64.1646 77.4734 65.9915 77.4734C66.2151 77.4734 66.4384 77.4579 66.6697 77.412C68.7585 77.0441 70.1616 75.0514 69.7916 72.9747C69.5527 71.6718 69.3753 70.3462 69.3753 68.9668C69.3753 56.2912 79.7508 45.9759 92.5003 45.9759C93.8878 45.9759 95.2214 46.1523 96.5316 46.3822C98.5821 46.796 100.625 45.3551 100.995 43.2784C101.365 41.2017 99.9621 39.209 97.8729 38.8412Z" fill="#0BBEF2" fill-opacity="0.7"/>
<path d="M184.083 66.4917C183.211 65.4647 162.361 41.2708 133.601 26.4571C131.735 25.484 129.385 26.2197 128.405 28.1049C127.426 29.9826 128.166 32.2968 130.063 33.2703C152.216 44.6738 169.915 62.4687 175.966 68.9675C166.778 78.8611 130.618 114.949 92.5003 114.949C79.5658 114.949 66.531 111.845 53.7429 105.714C51.8466 104.787 49.5265 105.592 48.6015 107.5C47.669 109.401 48.4783 111.692 50.3977 112.612C64.234 119.256 78.402 122.613 92.5006 122.613C139.992 122.613 182.31 73.5348 184.091 71.4426C185.308 70.0168 185.301 67.9247 184.083 66.4917Z" fill="#0BBEF2" fill-opacity="0.7"/>
<path d="M117.791 19.7357C109.019 16.8004 100.509 15.3214 92.5003 15.3214C45.0092 15.3214 2.6906 64.3995 0.909984 66.4916C-0.21555 67.8097 -0.308049 69.7258 0.694272 71.1588C1.22615 71.9175 13.968 89.9039 36.0523 104.488C36.7074 104.925 37.4398 105.132 38.1798 105.132C39.421 105.132 40.6466 104.534 41.3866 103.408C42.5659 101.653 42.0803 99.2691 40.3073 98.1041C24.0891 87.3828 12.9892 74.439 8.83425 69.174C17.7066 59.5944 54.1053 22.9853 92.5003 22.9853C99.6766 22.9853 107.362 24.3342 115.332 26.9933C117.352 27.7135 119.541 26.6024 120.212 24.5868C120.89 22.579 119.811 20.4103 117.791 19.7357Z" fill="#0BBEF2" fill-opacity="0.7"/>
<path d="M160.742 1.1208C159.239 -0.373601 156.795 -0.373601 155.292 1.1208L24.251 131.402C22.7479 132.897 22.7479 135.326 24.251 136.821C25.0065 137.564 25.993 137.94 26.9797 137.94C27.9665 137.94 28.9529 137.564 29.7009 136.821L160.742 6.5391C162.245 5.04469 162.245 2.61521 160.742 1.1208Z" fill="#0BBEF2" fill-opacity="0.7"/>
</svg>
