<svg width="153" height="29" viewBox="0 0 153 29" fill="none" xmlns="http://www.w3.org/2000/svg">
<path d="M8.7 21.3C7.04 21.3 5.61 20.96 4.41 20.28C3.23 19.58 2.34 18.64 1.74 17.46C1.14 16.28 0.84 14.97 0.84 13.53C0.84 12.07 1.14 10.75 1.74 9.57C2.34 8.37 3.24 7.43 4.44 6.75C5.64 6.05 7.1 5.7 8.82 5.7C10.36 5.7 11.7 6.02 12.84 6.66L12.54 9.66C11.46 9.1 10.34 8.82 9.18 8.82C7.76 8.82 6.65 9.25 5.85 10.11C5.05 10.97 4.65 12.11 4.65 13.53C4.65 14.89 5.06 16.02 5.88 16.92C6.7 17.8 7.79 18.24 9.15 18.24C10.29 18.24 11.43 17.91 12.57 17.25L12.9 20.4C12.36 20.68 11.72 20.9 10.98 21.06C10.26 21.22 9.5 21.3 8.7 21.3ZM14.4923 6H17.9723L18.0623 7.59C18.5023 7.09 19.0623 6.65 19.7423 6.27C20.4423 5.89 21.1723 5.7 21.9323 5.7C22.1723 5.7 22.3923 5.72 22.5923 5.76L22.3223 9.42C21.9423 9.32 21.5123 9.27 21.0323 9.27C20.4123 9.27 19.8423 9.42 19.3223 9.72C18.8023 10 18.4323 10.35 18.2123 10.77V21H14.4923V6ZM28.0247 20.01L21.7847 6H25.9247L29.7647 15.66L33.6647 6H37.8047L28.4147 28.26H24.6947L28.0247 20.01ZM46.538 5.76C47.958 5.76 49.178 6.11 50.198 6.81C51.218 7.51 51.988 8.45 52.508 9.63C53.028 10.81 53.288 12.11 53.288 13.53C53.288 14.95 53.028 16.25 52.508 17.43C51.988 18.61 51.218 19.55 50.198 20.25C49.178 20.95 47.958 21.3 46.538 21.3C45.638 21.3 44.868 21.2 44.228 21C43.608 20.82 43.008 20.52 42.428 20.1V28.26H38.708V6H41.708L42.098 7.38C42.738 6.84 43.408 6.44 44.108 6.18C44.808 5.9 45.618 5.76 46.538 5.76ZM45.968 18.24C47.068 18.24 47.928 17.81 48.548 16.95C49.168 16.09 49.478 14.95 49.478 13.53C49.478 12.11 49.168 10.97 48.548 10.11C47.928 9.25 47.068 8.82 45.968 8.82C44.728 8.82 43.798 9.24 43.178 10.08C42.558 10.92 42.248 12.07 42.248 13.53C42.248 14.99 42.558 16.14 43.178 16.98C43.798 17.82 44.728 18.24 45.968 18.24ZM59.6902 21.3C58.3702 21.3 57.3702 20.92 56.6902 20.16C56.0102 19.38 55.6702 18.45 55.6702 17.37V9.06H53.5402L53.8702 6H55.6702V2.7L59.3902 2.31V6H62.6902V9.06H59.3902V15.84C59.3902 16.64 59.4302 17.2 59.5102 17.52C59.6102 17.82 59.8002 18.02 60.0802 18.12C60.3802 18.2 60.9102 18.24 61.6702 18.24H62.6902L62.3602 21.3H59.6902ZM71.0227 21.3C69.4427 21.3 68.0727 20.95 66.9127 20.25C65.7527 19.55 64.8627 18.61 64.2427 17.43C63.6227 16.25 63.3127 14.95 63.3127 13.53C63.3127 12.11 63.6227 10.8 64.2427 9.6C64.8627 8.4 65.7527 7.45 66.9127 6.75C68.0727 6.05 69.4427 5.7 71.0227 5.7C72.6027 5.7 73.9727 6.05 75.1327 6.75C76.2927 7.45 77.1827 8.4 77.8027 9.6C78.4227 10.8 78.7327 12.11 78.7327 13.53C78.7327 14.95 78.4227 16.25 77.8027 17.43C77.1827 18.61 76.2927 19.55 75.1327 20.25C73.9727 20.95 72.6027 21.3 71.0227 21.3ZM71.0227 18.24C72.2427 18.24 73.1927 17.81 73.8727 16.95C74.5727 16.09 74.9227 14.95 74.9227 13.53C74.9227 12.09 74.5727 10.94 73.8727 10.08C73.1927 9.2 72.2427 8.76 71.0227 8.76C69.8027 8.76 68.8427 9.2 68.1427 10.08C67.4627 10.94 67.1227 12.09 67.1227 13.53C67.1227 14.95 67.4627 16.09 68.1427 16.95C68.8427 17.81 69.8027 18.24 71.0227 18.24Z" fill="white"/>
<path d="M97.252 5.76C99.252 5.76 100.732 6.37 101.692 7.59C102.672 8.79 103.162 10.48 103.162 12.66V21H99.442V12.93C99.442 11.51 99.222 10.47 98.782 9.81C98.342 9.15 97.622 8.82 96.622 8.82C95.642 8.82 94.902 9.16 94.402 9.84C93.902 10.5 93.652 11.44 93.652 12.66V21H89.932V12.93C89.932 11.51 89.702 10.47 89.242 9.81C88.782 9.15 88.052 8.82 87.052 8.82C85.872 8.82 84.902 9.25 84.142 10.11V21H80.422V6H83.602L83.722 7.2C85.082 6.24 86.552 5.76 88.132 5.76C90.052 5.76 91.482 6.45 92.422 7.83C92.942 7.17 93.622 6.66 94.462 6.3C95.302 5.94 96.232 5.76 97.252 5.76ZM105.596 -1.43051e-06H109.316V3.72H105.596V-1.43051e-06ZM105.596 6H109.316V21H105.596V6ZM115.443 13.5L110.463 6H114.903L117.633 10.35L120.153 6H124.593L119.613 13.5L124.593 21H120.153L117.423 16.65L114.903 21H110.463L115.443 13.5ZM132.501 21.3C130.761 21.3 129.271 20.95 128.031 20.25C126.811 19.53 125.891 18.58 125.271 17.4C124.671 16.2 124.371 14.87 124.371 13.41C124.371 12.01 124.661 10.73 125.241 9.57C125.821 8.41 126.661 7.49 127.761 6.81C128.861 6.11 130.171 5.76 131.691 5.76C133.091 5.76 134.271 6.05 135.231 6.63C136.211 7.21 136.941 7.99 137.421 8.97C137.921 9.95 138.171 11.05 138.171 12.27C138.171 12.87 138.091 13.55 137.931 14.31H128.241C128.441 15.63 128.961 16.62 129.801 17.28C130.641 17.92 131.651 18.24 132.831 18.24C134.451 18.24 135.951 17.83 137.331 17.01L137.511 20.16C136.871 20.5 136.121 20.78 135.261 21C134.421 21.2 133.501 21.3 132.501 21.3ZM134.391 11.79C134.391 11.01 134.171 10.32 133.731 9.72C133.291 9.12 132.611 8.82 131.691 8.82C130.771 8.82 130.031 9.09 129.471 9.63C128.911 10.17 128.531 10.89 128.331 11.79H134.391ZM139.81 6H143.29L143.38 7.59C143.82 7.09 144.38 6.65 145.06 6.27C145.76 5.89 146.49 5.7 147.25 5.7C147.49 5.7 147.71 5.72 147.91 5.76L147.64 9.42C147.26 9.32 146.83 9.27 146.35 9.27C145.73 9.27 145.16 9.42 144.64 9.72C144.12 10 143.75 10.35 143.53 10.77V21H139.81V6Z" fill="#0BBEF2"/>
<path d="M148.453 16.92H152.353V21H148.453V16.92Z" fill="#0BBEF2"/>
</svg>
